<?xml version="1.0" standalone="no"?>
<!DOCTYPE svg PUBLIC "-//W3C//DTD SVG 20010904//EN"
 "http://www.w3.org/TR/2001/REC-SVG-20010904/DTD/svg10.dtd">
<svg version="1.0" xmlns="http://www.w3.org/2000/svg"
 width="280.000000pt" height="154.000000pt" viewBox="0 0 280.000000 154.000000"
 preserveAspectRatio="xMidYMid meet">
<metadata>
Created by potrace 1.15, written by Peter Selinger 2001-2017
</metadata>
<g transform="translate(0.000000,154.000000) scale(0.100000,-0.100000)"
fill="#000000" stroke="none">
<path d="M1397 1472 c-13 -14 -17 -38 -17 -95 l0 -76 -402 -3 c-386 -3 -405
-4 -456 -25 -28 -11 -52 -19 -52 -17 0 3 -12 -7 -27 -21 -16 -14 -43 -36 -60
-48 -18 -12 -33 -27 -33 -32 0 -6 -11 -22 -24 -37 -14 -14 -22 -29 -19 -32 4
-3 1 -6 -6 -6 -7 0 -9 -4 -6 -10 3 -5 1 -10 -5 -10 -6 0 -8 -4 -5 -10 3 -5 1
-10 -5 -10 -6 0 -9 -4 -6 -8 3 -4 1 -26 -4 -48 -5 -21 -9 -104 -9 -184 0 -181
-1 -178 16 -184 8 -3 11 -11 7 -17 -4 -8 -3 -9 5 -5 6 4 14 1 16 -7 4 -8 24
-14 56 -16 41 -2 55 3 80 23 17 15 27 26 23 26 -5 0 -3 5 4 12 8 8 12 59 12
162 0 140 2 152 24 190 14 24 42 52 68 66 l43 25 383 3 382 3 0 -81 c0 -87 14
-117 55 -115 11 0 72 39 135 85 63 47 118 84 122 82 5 -1 8 2 8 7 0 6 27 28
59 51 33 23 62 51 65 63 6 22 -32 89 -45 81 -4 -2 -14 4 -21 14 -7 11 -17 19
-21 19 -14 1 -137 94 -137 104 0 5 -3 8 -7 7 -17 -3 -42 15 -36 26 3 6 3 8 -2
4 -4 -4 -29 8 -55 27 -54 39 -79 43 -103 17z"/>
<path d="M2260 1330 c0 -5 -11 -10 -25 -10 -14 0 -25 -4 -25 -10 0 -5 -11 -10
-25 -10 -16 0 -25 -6 -25 -15 0 -9 -9 -15 -25 -15 -14 0 -25 -4 -25 -10 0 -5
-9 -10 -21 -10 -34 0 -49 -24 -49 -79 l0 -51 70 0 70 0 0 -410 c0 -358 2 -410
15 -410 8 0 15 -7 15 -15 0 -12 13 -15 60 -15 47 0 60 3 60 15 0 8 5 15 11 15
16 0 39 26 39 44 0 9 -4 16 -10 16 -7 0 -10 167 -10 480 0 420 -2 480 -15 480
-8 0 -15 5 -15 10 0 6 -16 10 -35 10 -19 0 -35 -4 -35 -10z"/>
<path d="M1888 897 c-28 -28 -28 -29 -28 -173 0 -108 -4 -154 -16 -182 -18
-45 -72 -102 -95 -102 -10 0 -21 -4 -24 -10 -4 -6 -145 -10 -391 -10 l-384 0
0 89 c0 57 -4 92 -12 97 -7 5 -8 3 -3 -7 7 -11 6 -12 -6 -3 -18 14 -57 24 -61
15 -5 -10 -117 -92 -124 -90 -4 0 -10 -5 -15 -13 -5 -7 -12 -13 -16 -13 -4 0
-20 -12 -35 -26 -14 -13 -39 -31 -55 -39 -15 -8 -36 -24 -45 -35 -10 -11 -17
-17 -18 -13 0 3 -14 -8 -31 -25 -43 -42 -32 -68 55 -133 37 -28 71 -56 75 -63
5 -7 10 -11 12 -10 7 6 99 -62 99 -73 0 -6 3 -8 6 -5 6 6 81 -46 95 -66 7 -10
38 1 62 21 13 12 17 31 17 94 l0 78 395 1 c217 1 398 2 403 3 112 30 185 77
257 167 11 14 21 32 23 40 2 7 7 16 10 19 4 3 8 10 9 15 0 6 8 33 16 61 22 74
22 328 0 364 -38 65 -126 78 -175 27z"/>
</g>
</svg>
