<?xml version="1.0" encoding="UTF-8"?>
<svg xmlns="http://www.w3.org/2000/svg" xmlns:xlink="http://www.w3.org/1999/xlink" width="30pt" height="17pt" viewBox="0 0 30 17" version="1.1">
<g id="surface1">
<path style=" stroke:none;fill-rule:nonzero;fill:rgb(0%,0%,0%);fill-opacity:1;" d="M 14.96875 0.75 C 14.828125 0.902344 14.785156 1.167969 14.785156 1.792969 L 14.785156 2.632812 L 10.480469 2.664062 C 6.34375 2.699219 6.140625 2.707031 5.59375 2.941406 C 5.292969 3.0625 5.035156 3.148438 5.035156 3.125 C 5.035156 3.09375 4.90625 3.203125 4.746094 3.359375 C 4.574219 3.511719 4.285156 3.753906 4.105469 3.886719 C 3.910156 4.019531 3.75 4.183594 3.75 4.238281 C 3.75 4.304688 3.632812 4.480469 3.492188 4.644531 C 3.34375 4.800781 3.257812 4.964844 3.289062 5 C 3.332031 5.03125 3.300781 5.066406 3.226562 5.066406 C 3.148438 5.066406 3.128906 5.109375 3.160156 5.175781 C 3.191406 5.230469 3.171875 5.285156 3.105469 5.285156 C 3.042969 5.285156 3.019531 5.328125 3.054688 5.394531 C 3.085938 5.449219 3.0625 5.503906 3 5.503906 C 2.9375 5.503906 2.902344 5.550781 2.9375 5.59375 C 2.96875 5.636719 2.945312 5.878906 2.894531 6.121094 C 2.839844 6.351562 2.796875 7.265625 2.796875 8.148438 C 2.796875 10.140625 2.785156 10.109375 2.96875 10.171875 C 3.054688 10.207031 3.085938 10.292969 3.042969 10.359375 C 3 10.449219 3.011719 10.460938 3.097656 10.414062 C 3.160156 10.371094 3.246094 10.40625 3.269531 10.492188 C 3.3125 10.582031 3.523438 10.648438 3.867188 10.667969 C 4.308594 10.691406 4.457031 10.636719 4.726562 10.414062 C 4.90625 10.25 5.015625 10.128906 4.972656 10.128906 C 4.917969 10.128906 4.9375 10.074219 5.015625 9.996094 C 5.101562 9.910156 5.144531 9.347656 5.144531 8.214844 C 5.144531 6.671875 5.164062 6.539062 5.398438 6.121094 C 5.550781 5.859375 5.851562 5.550781 6.128906 5.394531 L 6.589844 5.121094 L 10.691406 5.085938 L 14.785156 5.054688 L 14.785156 5.945312 C 14.785156 6.902344 14.9375 7.234375 15.375 7.210938 C 15.492188 7.210938 16.144531 6.78125 16.820312 6.277344 C 17.496094 5.757812 18.085938 5.351562 18.128906 5.375 C 18.183594 5.382812 18.214844 5.351562 18.214844 5.296875 C 18.214844 5.230469 18.503906 4.988281 18.847656 4.734375 C 19.199219 4.480469 19.511719 4.171875 19.542969 4.039062 C 19.605469 3.796875 19.199219 3.0625 19.0625 3.148438 C 19.019531 3.171875 18.910156 3.105469 18.835938 2.996094 C 18.761719 2.875 18.652344 2.785156 18.609375 2.785156 C 18.460938 2.773438 17.144531 1.75 17.144531 1.640625 C 17.144531 1.585938 17.109375 1.550781 17.066406 1.5625 C 16.886719 1.597656 16.617188 1.398438 16.683594 1.277344 C 16.714844 1.210938 16.714844 1.1875 16.660156 1.234375 C 16.617188 1.277344 16.351562 1.144531 16.070312 0.9375 C 15.492188 0.507812 15.226562 0.460938 14.96875 0.75 Z M 14.96875 0.75 "/>
<path style=" stroke:none;fill-rule:nonzero;fill:rgb(0%,0%,0%);fill-opacity:1;" d="M 24.214844 2.3125 C 24.214844 2.367188 24.097656 2.421875 23.945312 2.421875 C 23.796875 2.421875 23.679688 2.464844 23.679688 2.53125 C 23.679688 2.585938 23.5625 2.640625 23.410156 2.640625 C 23.238281 2.640625 23.144531 2.707031 23.144531 2.808594 C 23.144531 2.90625 23.046875 2.972656 22.875 2.972656 C 22.726562 2.972656 22.605469 3.015625 22.605469 3.082031 C 22.605469 3.136719 22.511719 3.191406 22.382812 3.191406 C 22.019531 3.191406 21.855469 3.457031 21.855469 4.0625 L 21.855469 4.625 L 23.355469 4.625 L 23.355469 9.136719 C 23.355469 13.082031 23.378906 13.652344 23.519531 13.652344 C 23.605469 13.652344 23.679688 13.730469 23.679688 13.816406 C 23.679688 13.949219 23.816406 13.984375 24.320312 13.984375 C 24.824219 13.984375 24.964844 13.949219 24.964844 13.816406 C 24.964844 13.730469 25.019531 13.652344 25.082031 13.652344 C 25.253906 13.652344 25.5 13.367188 25.5 13.167969 C 25.5 13.070312 25.457031 12.992188 25.394531 12.992188 C 25.316406 12.992188 25.285156 11.152344 25.285156 7.707031 C 25.285156 3.082031 25.265625 2.421875 25.125 2.421875 C 25.039062 2.421875 24.964844 2.367188 24.964844 2.3125 C 24.964844 2.246094 24.792969 2.203125 24.589844 2.203125 C 24.386719 2.203125 24.214844 2.246094 24.214844 2.3125 Z M 24.214844 2.3125 "/>
<path style=" stroke:none;fill-rule:nonzero;fill:rgb(0%,0%,0%);fill-opacity:1;" d="M 20.230469 7.078125 C 19.929688 7.386719 19.929688 7.398438 19.929688 8.984375 C 19.929688 10.171875 19.886719 10.679688 19.757812 10.988281 C 19.5625 11.484375 18.984375 12.113281 18.738281 12.113281 C 18.632812 12.113281 18.515625 12.15625 18.480469 12.222656 C 18.4375 12.289062 16.929688 12.332031 14.292969 12.332031 L 10.179688 12.332031 L 10.179688 11.351562 C 10.179688 10.722656 10.136719 10.339844 10.050781 10.285156 C 9.976562 10.230469 9.964844 10.25 10.019531 10.359375 C 10.09375 10.480469 10.082031 10.492188 9.953125 10.394531 C 9.761719 10.238281 9.34375 10.128906 9.300781 10.230469 C 9.246094 10.339844 8.046875 11.242188 7.972656 11.21875 C 7.929688 11.21875 7.863281 11.273438 7.8125 11.363281 C 7.757812 11.441406 7.683594 11.503906 7.640625 11.503906 C 7.597656 11.503906 7.425781 11.636719 7.265625 11.792969 C 7.113281 11.933594 6.847656 12.132812 6.675781 12.222656 C 6.515625 12.308594 6.289062 12.484375 6.191406 12.605469 C 6.085938 12.726562 6.011719 12.792969 6 12.75 C 6 12.71875 5.851562 12.839844 5.667969 13.023438 C 5.207031 13.488281 5.324219 13.773438 6.257812 14.488281 C 6.652344 14.796875 7.019531 15.105469 7.0625 15.183594 C 7.113281 15.261719 7.167969 15.304688 7.1875 15.292969 C 7.265625 15.226562 8.25 15.976562 8.25 16.097656 C 8.25 16.164062 8.28125 16.183594 8.3125 16.152344 C 8.378906 16.085938 9.183594 16.660156 9.332031 16.878906 C 9.40625 16.988281 9.738281 16.867188 9.996094 16.648438 C 10.136719 16.515625 10.179688 16.304688 10.179688 15.613281 L 10.179688 14.753906 L 14.410156 14.742188 C 16.734375 14.730469 18.675781 14.722656 18.730469 14.710938 C 19.929688 14.378906 20.710938 13.863281 21.480469 12.871094 C 21.601562 12.71875 21.707031 12.519531 21.730469 12.429688 C 21.75 12.355469 21.804688 12.253906 21.835938 12.222656 C 21.878906 12.1875 21.921875 12.113281 21.933594 12.054688 C 21.933594 11.992188 22.019531 11.691406 22.105469 11.382812 C 22.339844 10.570312 22.339844 7.773438 22.105469 7.375 C 21.695312 6.660156 20.753906 6.519531 20.230469 7.078125 Z M 20.230469 7.078125 "/>
</g>
</svg>
