<?xml version="1.0" encoding="UTF-8"?>
<svg xmlns="http://www.w3.org/2000/svg" xmlns:xlink="http://www.w3.org/1999/xlink" width="17pt" height="17pt" viewBox="0 0 17 17" version="1.1">
<g id="surface1">
<path style=" stroke:none;fill-rule:nonzero;fill:rgb(0%,0%,0%);fill-opacity:1;" d="M 10.582031 2.46875 C 10.59375 2.488281 10.578125 2.492188 10.546875 2.480469 C 10.519531 2.46875 10.496094 2.46875 10.503906 2.488281 C 10.503906 2.503906 10.460938 2.566406 10.40625 2.628906 L 10.304688 2.742188 L 10.296875 3.386719 C 10.292969 3.742188 10.28125 4.042969 10.273438 4.058594 C 10.261719 4.074219 8.785156 4.082031 6.992188 4.082031 C 5.195312 4.082031 3.707031 4.089844 3.683594 4.097656 C 3.65625 4.105469 3.574219 4.121094 3.503906 4.125 C 3.429688 4.128906 3.363281 4.140625 3.355469 4.148438 C 3.328125 4.175781 2.742188 4.367188 2.699219 4.359375 C 2.675781 4.359375 2.664062 4.371094 2.671875 4.382812 C 2.691406 4.414062 2.425781 4.535156 2.363281 4.523438 C 2.335938 4.515625 2.328125 4.527344 2.335938 4.542969 C 2.347656 4.558594 2.253906 4.648438 2.132812 4.742188 C 1.859375 4.945312 1.523438 5.292969 1.34375 5.5625 C 1.273438 5.671875 1.183594 5.785156 1.148438 5.8125 C 1.117188 5.84375 1.097656 5.882812 1.109375 5.902344 C 1.117188 5.921875 1.105469 5.945312 1.074219 5.957031 C 1.050781 5.964844 1.03125 5.988281 1.046875 6.007812 C 1.0625 6.035156 0.964844 6.359375 0.875 6.574219 C 0.863281 6.601562 0.855469 6.636719 0.859375 6.652344 C 0.863281 6.667969 0.851562 6.699219 0.832031 6.71875 C 0.8125 6.742188 0.808594 6.773438 0.816406 6.785156 C 0.832031 6.792969 0.828125 6.828125 0.8125 6.863281 C 0.800781 6.894531 0.785156 6.976562 0.78125 7.039062 C 0.769531 7.199219 0.765625 9.398438 0.773438 9.480469 C 0.789062 9.601562 0.921875 9.816406 1.070312 9.945312 C 1.148438 10.015625 1.207031 10.085938 1.203125 10.105469 C 1.199219 10.121094 1.207031 10.125 1.230469 10.109375 C 1.246094 10.101562 1.261719 10.105469 1.261719 10.117188 C 1.261719 10.152344 1.335938 10.164062 1.71875 10.171875 C 1.886719 10.179688 2.023438 10.171875 2.023438 10.152344 C 2.023438 10.136719 2.042969 10.132812 2.058594 10.144531 C 2.074219 10.152344 2.09375 10.148438 2.09375 10.125 C 2.09375 10.101562 2.097656 10.089844 2.109375 10.101562 C 2.136719 10.125 2.453125 9.796875 2.476562 9.722656 C 2.488281 9.6875 2.511719 9.664062 2.527344 9.664062 C 2.546875 9.664062 2.554688 9.648438 2.539062 9.632812 C 2.53125 9.613281 2.550781 9.585938 2.578125 9.566406 C 2.625 9.542969 2.625 9.53125 2.59375 9.53125 C 2.558594 9.53125 2.558594 9.511719 2.605469 9.460938 C 2.640625 9.425781 2.648438 9.398438 2.628906 9.398438 C 2.578125 9.398438 2.578125 7.601562 2.625 7.277344 C 2.652344 7.054688 2.8125 6.664062 2.859375 6.695312 C 2.875 6.703125 2.878906 6.6875 2.867188 6.660156 C 2.855469 6.628906 2.910156 6.539062 3.023438 6.425781 C 3.222656 6.214844 3.398438 6.09375 3.457031 6.128906 C 3.480469 6.140625 3.488281 6.140625 3.476562 6.121094 C 3.464844 6.097656 3.5 6.066406 3.5625 6.042969 C 3.914062 5.914062 3.929688 5.914062 7.164062 5.910156 L 10.292969 5.910156 L 10.296875 6.515625 C 10.304688 7.285156 10.300781 7.253906 10.417969 7.363281 C 10.59375 7.519531 10.605469 7.523438 10.753906 7.511719 C 10.871094 7.5 10.894531 7.503906 10.878906 7.539062 C 10.859375 7.570312 10.871094 7.566406 10.898438 7.535156 C 10.96875 7.453125 11.175781 7.335938 11.207031 7.363281 C 11.222656 7.378906 11.222656 7.371094 11.210938 7.347656 C 11.183594 7.300781 11.300781 7.226562 11.339844 7.265625 C 11.355469 7.277344 11.355469 7.269531 11.34375 7.246094 C 11.320312 7.203125 11.355469 7.191406 11.457031 7.203125 C 11.496094 7.207031 11.496094 7.203125 11.457031 7.179688 C 11.40625 7.136719 11.46875 7.089844 11.527344 7.125 C 11.550781 7.136719 11.554688 7.136719 11.542969 7.113281 C 11.527344 7.09375 11.5625 7.050781 11.609375 7.015625 C 11.660156 6.984375 11.773438 6.90625 11.855469 6.839844 C 11.941406 6.777344 12.054688 6.695312 12.101562 6.65625 C 12.316406 6.5 12.78125 6.164062 12.949219 6.039062 C 13.363281 5.742188 13.441406 5.683594 13.691406 5.496094 C 13.835938 5.386719 13.984375 5.277344 14.019531 5.257812 C 14.066406 5.230469 14.070312 5.214844 14.039062 5.203125 C 14.007812 5.191406 14.007812 5.183594 14.035156 5.183594 C 14.058594 5.179688 14.066406 5.160156 14.058594 5.132812 C 14.046875 5.105469 14.054688 5.078125 14.074219 5.066406 C 14.113281 5.042969 14.042969 4.773438 13.976562 4.695312 C 13.957031 4.667969 13.683594 4.464844 13.378906 4.246094 C 13.058594 4.015625 12.828125 3.828125 12.839844 3.808594 C 12.851562 3.792969 12.847656 3.785156 12.828125 3.796875 C 12.796875 3.816406 12.550781 3.667969 12.550781 3.632812 C 12.550781 3.621094 12.570312 3.625 12.59375 3.640625 C 12.621094 3.65625 12.621094 3.644531 12.585938 3.609375 C 12.539062 3.550781 12.5 3.53125 12.535156 3.585938 C 12.566406 3.640625 12.519531 3.625 12.417969 3.546875 C 12.363281 3.507812 12.328125 3.464844 12.339844 3.449219 C 12.34375 3.4375 12.335938 3.414062 12.316406 3.398438 C 12.289062 3.386719 12.285156 3.390625 12.296875 3.414062 C 12.3125 3.4375 12.308594 3.453125 12.292969 3.453125 C 12.253906 3.453125 12.164062 3.351562 12.179688 3.332031 C 12.1875 3.320312 12.179688 3.304688 12.164062 3.292969 C 12.152344 3.28125 12.152344 3.289062 12.164062 3.308594 C 12.210938 3.394531 12.136719 3.347656 11.679688 3.011719 C 11.429688 2.824219 11.152344 2.625 11.074219 2.570312 C 10.992188 2.511719 10.929688 2.460938 10.9375 2.453125 C 10.945312 2.445312 10.863281 2.441406 10.757812 2.4375 C 10.636719 2.4375 10.570312 2.449219 10.582031 2.46875 Z M 10.582031 2.46875 "/>
<path style=" stroke:none;fill-rule:nonzero;fill:rgb(0%,0%,0%);fill-opacity:1;" d="M 15.085938 7.179688 C 15.078125 7.191406 15.050781 7.195312 15.023438 7.183594 C 14.996094 7.171875 14.976562 7.179688 14.976562 7.195312 C 14.976562 7.214844 14.917969 7.25 14.851562 7.269531 C 14.777344 7.292969 14.679688 7.371094 14.609375 7.457031 C 14.546875 7.535156 14.476562 7.601562 14.457031 7.601562 C 14.4375 7.601562 14.421875 7.625 14.417969 7.644531 C 14.410156 7.726562 14.390625 7.800781 14.367188 7.824219 C 14.355469 7.832031 14.347656 8.347656 14.34375 8.960938 C 14.34375 9.949219 14.332031 10.101562 14.28125 10.277344 C 14.203125 10.523438 14.140625 10.65625 14.105469 10.65625 C 14.089844 10.65625 14.082031 10.667969 14.085938 10.679688 C 14.09375 10.734375 14.035156 10.824219 14 10.800781 C 13.980469 10.789062 13.980469 10.796875 13.992188 10.816406 C 14.019531 10.863281 13.757812 11.132812 13.714844 11.105469 C 13.691406 11.09375 13.679688 11.109375 13.679688 11.136719 C 13.679688 11.167969 13.667969 11.1875 13.648438 11.1875 C 13.628906 11.1875 13.558594 11.226562 13.492188 11.273438 C 13.425781 11.320312 13.347656 11.347656 13.324219 11.34375 C 13.300781 11.332031 13.28125 11.339844 13.28125 11.359375 C 13.28125 11.378906 13.257812 11.390625 13.230469 11.378906 C 13.203125 11.367188 13.175781 11.371094 13.164062 11.390625 C 13.15625 11.40625 13.113281 11.421875 13.070312 11.425781 C 13.03125 11.429688 11.566406 11.433594 9.8125 11.433594 L 6.625 11.4375 L 6.617188 10.796875 C 6.609375 10.214844 6.605469 10.144531 6.542969 10.039062 C 6.503906 9.976562 6.429688 9.90625 6.375 9.882812 C 6.320312 9.859375 6.28125 9.835938 6.289062 9.824219 C 6.296875 9.816406 6.230469 9.8125 6.136719 9.808594 C 6.035156 9.804688 5.988281 9.816406 6.015625 9.832031 C 6.050781 9.855469 6.050781 9.859375 6.011719 9.859375 C 5.984375 9.859375 5.878906 9.921875 5.785156 9.992188 C 5.6875 10.066406 5.59375 10.121094 5.574219 10.109375 C 5.558594 10.097656 5.546875 10.109375 5.546875 10.136719 C 5.546875 10.195312 5.390625 10.304688 5.34375 10.277344 C 5.324219 10.261719 5.316406 10.273438 5.320312 10.292969 C 5.324219 10.316406 5.300781 10.347656 5.261719 10.371094 C 5.226562 10.390625 5.183594 10.425781 5.164062 10.445312 C 5.082031 10.523438 4.878906 10.660156 4.855469 10.644531 C 4.839844 10.636719 4.808594 10.644531 4.78125 10.664062 C 4.742188 10.691406 4.746094 10.695312 4.796875 10.679688 C 4.859375 10.65625 4.859375 10.65625 4.800781 10.707031 C 4.769531 10.734375 4.726562 10.746094 4.707031 10.738281 C 4.691406 10.726562 4.683594 10.738281 4.6875 10.765625 C 4.695312 10.789062 4.671875 10.808594 4.640625 10.808594 C 4.613281 10.808594 4.574219 10.820312 4.558594 10.835938 C 4.542969 10.855469 4.550781 10.859375 4.582031 10.84375 C 4.609375 10.832031 4.601562 10.839844 4.570312 10.871094 C 4.535156 10.898438 4.488281 10.914062 4.46875 10.902344 C 4.449219 10.890625 4.441406 10.890625 4.457031 10.90625 C 4.480469 10.929688 4.371094 11.03125 4.183594 11.15625 C 4.144531 11.183594 4.070312 11.238281 4.023438 11.28125 C 3.972656 11.320312 3.90625 11.367188 3.878906 11.375 C 3.84375 11.386719 3.820312 11.40625 3.820312 11.421875 C 3.820312 11.4375 3.789062 11.457031 3.753906 11.472656 C 3.71875 11.480469 3.640625 11.535156 3.582031 11.589844 C 3.527344 11.644531 3.46875 11.679688 3.460938 11.675781 C 3.453125 11.664062 3.417969 11.691406 3.382812 11.730469 C 3.351562 11.769531 3.324219 11.792969 3.320312 11.78125 C 3.320312 11.765625 3.269531 11.800781 3.214844 11.855469 C 3.15625 11.910156 3.085938 11.945312 3.0625 11.9375 C 3.039062 11.925781 3.023438 11.933594 3.039062 11.949219 C 3.046875 11.964844 3.019531 12.007812 2.972656 12.046875 C 2.875 12.121094 2.824219 12.234375 2.835938 12.367188 C 2.84375 12.480469 2.925781 12.648438 3 12.714844 C 3.03125 12.738281 3.046875 12.769531 3.039062 12.78125 C 3.027344 12.800781 3.039062 12.824219 3.058594 12.835938 C 3.085938 12.851562 3.089844 12.847656 3.074219 12.824219 C 3.042969 12.769531 3.074219 12.773438 3.171875 12.835938 C 3.21875 12.867188 3.253906 12.914062 3.253906 12.9375 C 3.253906 12.964844 3.265625 12.980469 3.285156 12.964844 C 3.332031 12.9375 4.152344 13.546875 4.128906 13.589844 C 4.117188 13.609375 4.125 13.613281 4.144531 13.601562 C 4.175781 13.578125 4.460938 13.765625 4.75 13.992188 C 4.796875 14.03125 4.875 14.085938 4.917969 14.109375 C 4.960938 14.136719 5.035156 14.199219 5.085938 14.25 C 5.140625 14.300781 5.1875 14.339844 5.191406 14.335938 C 5.21875 14.3125 5.582031 14.59375 5.558594 14.621094 C 5.550781 14.632812 5.554688 14.636719 5.566406 14.625 C 5.605469 14.597656 5.714844 14.679688 5.691406 14.714844 C 5.679688 14.734375 5.679688 14.742188 5.703125 14.730469 C 5.722656 14.71875 5.792969 14.746094 5.863281 14.792969 C 5.929688 14.839844 6.007812 14.875 6.03125 14.875 C 6.054688 14.875 6.078125 14.886719 6.082031 14.902344 C 6.101562 14.953125 6.375 14.867188 6.464844 14.777344 C 6.519531 14.730469 6.582031 14.679688 6.609375 14.664062 C 6.640625 14.652344 6.644531 14.644531 6.613281 14.644531 C 6.589844 14.640625 6.582031 14.625 6.589844 14.609375 C 6.605469 14.589844 6.609375 14.289062 6.609375 13.945312 L 6.605469 13.3125 L 9.667969 13.3125 C 12.851562 13.308594 13.160156 13.304688 13.425781 13.25 C 13.515625 13.226562 13.597656 13.222656 13.613281 13.230469 C 13.628906 13.242188 13.648438 13.230469 13.652344 13.214844 C 13.660156 13.195312 13.691406 13.171875 13.730469 13.164062 C 13.765625 13.160156 13.800781 13.152344 13.804688 13.148438 C 13.808594 13.140625 13.824219 13.136719 13.839844 13.136719 C 13.851562 13.132812 13.882812 13.117188 13.90625 13.105469 C 13.925781 13.089844 13.945312 13.089844 13.945312 13.097656 C 13.945312 13.109375 13.980469 13.09375 14.019531 13.070312 C 14.058594 13.039062 14.125 13.015625 14.167969 13.015625 C 14.207031 13.015625 14.261719 12.992188 14.289062 12.964844 C 14.3125 12.9375 14.34375 12.929688 14.355469 12.9375 C 14.367188 12.953125 14.378906 12.941406 14.378906 12.917969 C 14.378906 12.894531 14.394531 12.890625 14.410156 12.898438 C 14.429688 12.910156 14.445312 12.90625 14.445312 12.886719 C 14.445312 12.871094 14.476562 12.84375 14.519531 12.828125 C 14.558594 12.816406 14.597656 12.796875 14.609375 12.785156 C 14.621094 12.773438 14.6875 12.71875 14.757812 12.667969 C 14.832031 12.613281 14.953125 12.519531 15.019531 12.460938 C 15.089844 12.402344 15.164062 12.363281 15.175781 12.371094 C 15.195312 12.382812 15.195312 12.363281 15.1875 12.339844 C 15.175781 12.3125 15.195312 12.273438 15.230469 12.257812 C 15.261719 12.238281 15.351562 12.148438 15.417969 12.054688 C 15.492188 11.964844 15.566406 11.898438 15.582031 11.910156 C 15.601562 11.921875 15.605469 11.914062 15.59375 11.890625 C 15.570312 11.855469 15.679688 11.664062 15.75 11.617188 C 15.765625 11.609375 15.773438 11.589844 15.773438 11.585938 C 15.757812 11.558594 15.847656 11.390625 15.875 11.390625 C 15.890625 11.390625 15.894531 11.367188 15.882812 11.34375 C 15.875 11.320312 15.886719 11.277344 15.910156 11.253906 C 15.933594 11.226562 15.960938 11.175781 15.964844 11.140625 C 15.972656 11.101562 15.992188 11.070312 16.003906 11.0625 C 16.019531 11.054688 16.023438 11.03125 16.015625 11.003906 C 16.003906 10.976562 16.011719 10.957031 16.023438 10.957031 C 16.039062 10.957031 16.058594 10.90625 16.058594 10.851562 C 16.066406 10.789062 16.082031 10.738281 16.101562 10.730469 C 16.121094 10.726562 16.125 10.699219 16.113281 10.671875 C 16.101562 10.644531 16.121094 10.59375 16.148438 10.5625 C 16.191406 10.515625 16.195312 10.496094 16.167969 10.484375 C 16.140625 10.476562 16.132812 10.449219 16.148438 10.40625 C 16.191406 10.304688 16.203125 9.953125 16.203125 8.949219 C 16.199219 7.972656 16.199219 7.910156 16.15625 7.84375 C 16.144531 7.824219 16.144531 7.785156 16.152344 7.769531 C 16.164062 7.75 16.15625 7.734375 16.136719 7.734375 C 16.117188 7.734375 16.109375 7.71875 16.121094 7.703125 C 16.148438 7.652344 15.765625 7.277344 15.660156 7.25 C 15.613281 7.242188 15.574219 7.21875 15.574219 7.203125 C 15.574219 7.1875 15.546875 7.175781 15.515625 7.175781 C 15.484375 7.175781 15.375 7.171875 15.28125 7.164062 C 15.183594 7.160156 15.097656 7.160156 15.085938 7.179688 Z M 15.085938 7.179688 "/>
</g>
</svg>
